# xmcd
#
# Track frame offsets: 
#        150
#        16536
#        36593
#        55999
#        76332
#        101305
#        120812
#        140987
#        160664
#        180592
#        199880
#        222846
#        246628
#        265663
#        285776
#
# Disc length: 4047 seconds
#
# Revision: 11
# Processed by: cddbd v1.5.2PL0 Copyright (c) Steve Scherf et al.
# Submitted via: ExactAudioCopy v0.95a5
#
DISCID=c80fcd0f
DTITLE=Toni Braxton - Secrets [Japan Bonus Tracks]
DYEAR=1996
DGENRE=Soul and R&B
TTITLE0=Come on Over Here
TTITLE1=You're Makin' Me High
TTITLE2=There's No Me Without You
TTITLE3=Un-Break My Heart
TTITLE4=Talking in His Sleep
TTITLE5=How Could an Angel Break My Heart
TTITLE6=Find Me a Man
TTITLE7=Let It Flow
TTITLE8=Why Should I Care
TTITLE9=I Don't Want to
TTITLE10=I Love Me Some Him
TTITLE11=In the Late of Night
TTITLE12=You're Makin' Me High [T'Empo Mix"]
TTITLE13=Un-Break My Heart [Classic Radio Mix]
TTITLE14=I Don't Want to [Frankie Knuckles Radio Edit]
EXTD=YEAR: 1996
EXTT0=
EXTT1=
EXTT2=
EXTT3=
EXTT4=
EXTT5=
EXTT6=
EXTT7=
EXTT8=
EXTT9=
EXTT10=
EXTT11=
EXTT12=
EXTT13=
EXTT14=
PLAYORDER=
